mtllib ./BigShip.mtl
g ship
v -49 0 60
v -70 0 60
v -49 1 60
v -70 1 60
v -75 0 15
v -75 0 -24
v -75 1 15
v -75 1 -24
v -69.265 0 -66
v -49.735 0 -66
v -69.265 1 -66
v -49.735 1 -66
v -44 0 -24
v -44 0 15
v -44 1 -24
v -44 1 15
v -44 1 15
v -75 1 15
v -44 1 -24
v -75 1 -24
v -44 0 -24
v -75 0 -24
v -44 0 15
v -75 0 15
v -44 0 15
v -75 0 15
v -49 0 20
v -70 0 20
v -44 1 15
v -44 0 15
v -49 1 20
v -49 0 20
v -75 0 15
v -75 1 15
v -70 0 20
v -70 1 20
v -75 1 15
v -44 1 15
v -70 1 20
v -49 1 20
v -49 0 20
v -70 0 20
v -49 0 35
v -70 0 35
v -49 1 20
v -49 0 20
v -49 1 35
v -49 0 35
v -70 0 20
v -70 1 20
v -70 0 35
v -70 1 35
v -70 1 20
v -49 1 20
v -70 1 35
v -49 1 35
v -75 0 -24
v -44 0 -24
v -70.5 0 -29
v -48.5 0 -29
v -75 1 -24
v -75 0 -24
v -70.5 1 -29
v -70.5 0 -29
v -44 0 -24
v -44 1 -24
v -48.5 0 -29
v -48.5 1 -29
v -44 1 -24
v -75 1 -24
v -48.5 1 -29
v -70.5 1 -29
v -70.5 0 -29
v -48.5 0 -29
v -70 0 -40
v -48.5 0 -40
v -70.5 1 -29
v -70.5 0 -29
v -70 1 -40
v -70 0 -40
v -48.5 0 -29
v -48.5 1 -29
v -48.5 0 -40
v -48.5 1 -40
v -48.5 1 -29
v -70.5 1 -29
v -48.5 1 -40
v -70 1 -40
v -70 0 -40
v -48.5 0 -40
v -75 0 -45
v -44 0 -45
v -70 1 -40
v -70 0 -40
v -75 1 -45
v -75 0 -45
v -48.5 0 -40
v -48.5 1 -40
v -44 0 -45
v -44 1 -45
v -48.5 1 -40
v -70 1 -40
v -44 1 -45
v -75 1 -45
v -75 0 -45
v -44 0 -45
v -75 0 -61
v -44 0 -61
v -75 1 -45
v -75 0 -45
v -75 1 -61
v -75 0 -61
v -44 0 -45
v -44 1 -45
v -44 0 -61
v -44 1 -61
v -44 1 -45
v -75 1 -45
v -44 1 -61
v -75 1 -61
v -75 0 -61
v -44 0 -61
v -69.265 0 -66
v -49.735 0 -66
v -75 1 -61
v -75 0 -61
v -69.265 1 -66
v -69.265 0 -66
v -44 0 -61
v -44 1 -61
v -49.735 0 -66
v -49.735 1 -66
v -44 1 -61
v -75 1 -61
v -49.735 1 -66
v -69.265 1 -66
v -49 0 35
v -70 0 35
v -44 0 40
v -75 0 40
v -49 1 35
v -49 0 35
v -44 1 40
v -44 0 40
v -70 0 35
v -70 1 35
v -75 0 40
v -75 1 40
v -70 1 35
v -49 1 35
v -75 1 40
v -44 1 40
v -44 0 40
v -75 0 40
v -44 0 55
v -75 0 55
v -44 1 40
v -44 0 40
v -44 1 55
v -44 0 55
v -75 0 40
v -75 1 40
v -75 0 55
v -75 1 55
v -75 1 40
v -44 1 40
v -75 1 55
v -44 1 55
v -44 0 55
v -75 0 55
v -49 0 60
v -70 0 60
v -44 1 55
v -44 0 55
v -49 1 60
v -49 0 60
v -75 0 55
v -75 1 55
v -70 0 60
v -70 1 60
v -75 1 55
v -44 1 55
v -70 1 60
v -49 1 60

vn 0 0 1
vn 0 0 1
vn 0 0 1
vn 0 0 1
vn -1 0 0
vn -1 0 0
vn -1 0 0
vn -1 0 0
vn 0 0 -1
vn 0 0 -1
vn 0 0 -1
vn 0 0 -1
vn 1 0 0
vn 1 0 0
vn 1 0 0
vn 1 0 0
vn 0 1 0
vn 0 1 0
vn 0 1 0
vn 0 1 0
vn 0 -1 0
vn 0 -1 0
vn 0 -1 0
vn 0 -1 0
vn 0 -1 0
vn 0 -1 0
vn 0 -1 0
vn 0 -1 0
vn 0.7071068 0 0.7071068
vn 0.7071068 0 0.7071068
vn 0.7071068 0 0.7071068
vn 0.7071068 0 0.7071068
vn -0.7071068 0 0.7071068
vn -0.7071068 0 0.7071068
vn -0.7071068 0 0.7071068
vn -0.7071068 0 0.7071068
vn 0 1 0
vn 0 1 0
vn 0 1 0
vn 0 1 0
vn 0 -1 0
vn 0 -1 0
vn 0 -1 0
vn 0 -1 0
vn 1 0 0
vn 1 0 0
vn 1 0 0
vn 1 0 0
vn -1 0 0
vn -1 0 0
vn -1 0 0
vn -1 0 0
vn 0 1 0
vn 0 1 0
vn 0 1 0
vn 0 1 0
vn 0 -1 0
vn 0 -1 0
vn 0 -1 0
vn 0 -0.9999999 0
vn -0.7432941 0 -0.6689647
vn -0.7432941 0 -0.6689647
vn -0.7432941 0 -0.6689647
vn -0.7432941 0 -0.6689647
vn 0.7432941 0 -0.6689647
vn 0.7432941 0 -0.6689647
vn 0.7432941 0 -0.6689647
vn 0.7432941 0 -0.6689647
vn 0 1 0
vn 0 1 0
vn 0 1 0
vn 0 0.9999999 0
vn 0 -0.9999999 0
vn 0 -1 0
vn 0 -1 0
vn 0 -1 0
vn -0.9989686 0 -0.04540766
vn -0.9989686 0 -0.04540766
vn -0.9989686 0 -0.04540766
vn -0.9989686 0 -0.04540766
vn 1 0 0
vn 1 0 0
vn 1 0 0
vn 1 0 0
vn 0 0.9999999 0
vn 0 1 0
vn 0 1 0
vn 0 1 0
vn 0 -1 0
vn 0 -1 0
vn 0 -1 0
vn 0 -1 0
vn -0.7071068 0 0.7071068
vn -0.7071068 0 0.7071068
vn -0.7071068 0 0.7071068
vn -0.7071068 0 0.7071068
vn 0.7432941 0 0.6689647
vn 0.7432941 0 0.6689647
vn 0.7432941 0 0.6689647
vn 0.7432941 0 0.6689647
vn 0 1 0
vn 0 1 0
vn 0 1 0
vn 0 1 0
vn 0 -1 0
vn 0 -1 0
vn 0 -1 0
vn 0 -1 0
vn -1 0 0
vn -1 0 0
vn -1 0 0
vn -1 0 0
vn 1 0 0
vn 1 0 0
vn 1 0 0
vn 1 0 0
vn 0 1 0
vn 0 1 0
vn 0 1 0
vn 0 1 0
vn 0 -1 0
vn 0 -1 0
vn 0 -1 0
vn 0 -1 0
vn -0.6571543 0 -0.7537561
vn -0.6571543 0 -0.7537561
vn -0.6571543 0 -0.7537561
vn -0.6571543 0 -0.7537561
vn 0.6571543 0 -0.7537561
vn 0.6571543 0 -0.7537561
vn 0.6571543 0 -0.7537561
vn 0.6571543 0 -0.7537561
vn 0 1 0
vn 0 1 0
vn 0 1 0
vn 0 1 0
vn 0 -1 0
vn 0 -1 0
vn 0 -1 0
vn 0 -1 0
vn 0.7071068 0 -0.7071068
vn 0.7071068 0 -0.7071068
vn 0.7071068 0 -0.7071068
vn 0.7071068 0 -0.7071068
vn -0.7071068 0 -0.7071068
vn -0.7071068 0 -0.7071068
vn -0.7071068 0 -0.7071068
vn -0.7071068 0 -0.7071068
vn 0 1 0
vn 0 1 0
vn 0 1 0
vn 0 1 0
vn 0 -1 0
vn 0 -1 0
vn 0 -1 0
vn 0 -1 0
vn 1 0 0
vn 1 0 0
vn 1 0 0
vn 1 0 0
vn -1 0 0
vn -1 0 0
vn -1 0 0
vn -1 0 0
vn 0 1 0
vn 0 1 0
vn 0 1 0
vn 0 1 0
vn 0 -1 0
vn 0 -1 0
vn 0 -1 0
vn 0 -1 0
vn 0.7071068 0 0.7071068
vn 0.7071068 0 0.7071068
vn 0.7071068 0 0.7071068
vn 0.7071068 0 0.7071068
vn -0.7071068 0 0.7071068
vn -0.7071068 0 0.7071068
vn -0.7071068 0 0.7071068
vn -0.7071068 0 0.7071068
vn 0 1 0
vn 0 1 0
vn 0 1 0
vn 0 1 0

vt 21 0
vt 0 0
vt 21 1
vt 0 1
vt 39 0
vt 0 0
vt 39 1
vt 0 1
vt 19.53 0
vt 0 0
vt 19.53 1
vt 0 1
vt 39 0
vt 0 0
vt 39 1
vt 0 1
vt 31 0
vt 0 0
vt 31 39
vt 0 39
vt 31 0
vt 0 0
vt 31 39
vt 0 39
vt 31 0
vt 0 0
vt 26 5
vt 5 5
vt 7.071067 1
vt 7.071067 0
vt 0 1
vt 0 0
vt 0 0
vt 0 1
vt 7.071068 0
vt 7.071068 1
vt 0 5
vt 31 5
vt 5 0
vt 26 0
vt 21 0
vt 0 0
vt 21 15
vt 0 15
vt 15 1
vt 15 0
vt 0 1
vt 0 0
vt 0 0
vt 0 1
vt 15 0
vt 15 1
vt 0 15
vt 21 15
vt 0 0
vt 21 0
vt 0 5
vt 31 5
vt 4.5 0
vt 26.5 0
vt 6.726812 1
vt 6.726812 0
vt 0 1
vt 0 0
vt 0 0
vt 0 1
vt 6.726812 0
vt 6.726812 1
vt 31 0
vt 0 0
vt 26.5 5
vt 4.5 5
vt 0 11
vt 22 11
vt 0.5 0
vt 22 0
vt 11.01136 1
vt 11.01136 0
vt 0 1
vt 0 0
vt 0 0
vt 0 1
vt 11 0
vt 11 1
vt 22 0
vt 0 0
vt 22 11
vt 0.5 11
vt 5 5
vt 26.5 5
vt 0 0
vt 31 0
vt 7.071068 1
vt 7.071068 0
vt 0 1
vt 0 0
vt 0 0
vt 0 1
vt 6.72681 0
vt 6.72681 1
vt 26.5 0
vt 5 0
vt 31 5
vt 0 5
vt 0 16
vt 31 16
vt 0 0
vt 31 0
vt 16 1
vt 16 0
vt 0 1
vt 0 0
vt 0 0
vt 0 1
vt 16 0
vt 16 1
vt 31 0
vt 0 0
vt 31 16
vt 0 16
vt 0 5
vt 31 5
vt 5.735001 0
vt 25.265 0
vt 7.608562 1
vt 7.608562 0
vt 0 1
vt 0 0
vt 0 0
vt 0 1
vt 7.608564 0
vt 7.608564 1
vt 31 0
vt 0 0
vt 25.265 5
vt 5.735001 5
vt 26 0
vt 5 0
vt 31 5
vt 0 5
vt 7.071068 1
vt 7.071068 0
vt 0 1
vt 0 0
vt 0 0
vt 0 1
vt 7.071068 0
vt 7.071068 1
vt 5 5
vt 26 5
vt 0 0
vt 31 0
vt 31 0
vt 0 0
vt 31 15
vt 0 15
vt 15 1
vt 15 0
vt 0 1
vt 0 0
vt 0 0
vt 0 1
vt 15 0
vt 15 1
vt 0 15
vt 31 15
vt 0 0
vt 31 0
vt 31 0
vt 0 0
vt 26 5
vt 5 5
vt 7.071068 1
vt 7.071068 0
vt 0 1
vt 0 0
vt 0 0
vt 0 1
vt 7.071068 0
vt 7.071068 1
vt 0 5
vt 31 5
vt 5 0
vt 26 0

usemtl Default_Prototype
usemap Default_Prototype
f 2/2/2 1/1/1 3/3/3
f 4/4/4 2/2/2 3/3/3
f 6/6/6 5/5/5 7/7/7
f 8/8/8 6/6/6 7/7/7
f 10/10/10 9/9/9 11/11/11
f 12/12/12 10/10/10 11/11/11
f 14/14/14 13/13/13 15/15/15
f 16/16/16 14/14/14 15/15/15
f 18/18/18 17/17/17 19/19/19
f 20/20/20 18/18/18 19/19/19
f 22/22/22 21/21/21 23/23/23
f 24/24/24 22/22/22 23/23/23
f 26/26/26 25/25/25 27/27/27
f 28/28/28 26/26/26 27/27/27
f 30/30/30 29/29/29 31/31/31
f 32/32/32 30/30/30 31/31/31
f 34/34/34 33/33/33 35/35/35
f 36/36/36 34/34/34 35/35/35
f 38/38/38 37/37/37 39/39/39
f 40/40/40 38/38/38 39/39/39
f 42/42/42 41/41/41 43/43/43
f 44/44/44 42/42/42 43/43/43
f 46/46/46 45/45/45 47/47/47
f 48/48/48 46/46/46 47/47/47
f 50/50/50 49/49/49 51/51/51
f 52/52/52 50/50/50 51/51/51
f 54/54/54 53/53/53 55/55/55
f 56/56/56 54/54/54 55/55/55
f 58/58/58 57/57/57 59/59/59
f 60/60/60 58/58/58 59/59/59
f 62/62/62 61/61/61 63/63/63
f 64/64/64 62/62/62 63/63/63
f 66/66/66 65/65/65 67/67/67
f 68/68/68 66/66/66 67/67/67
f 70/70/70 69/69/69 71/71/71
f 72/72/72 70/70/70 71/71/71
f 74/74/74 73/73/73 75/75/75
f 76/76/76 74/74/74 75/75/75
f 78/78/78 77/77/77 79/79/79
f 80/80/80 78/78/78 79/79/79
f 82/82/82 81/81/81 83/83/83
f 84/84/84 82/82/82 83/83/83
f 86/86/86 85/85/85 87/87/87
f 88/88/88 86/86/86 87/87/87
f 90/90/90 89/89/89 91/91/91
f 92/92/92 90/90/90 91/91/91
f 94/94/94 93/93/93 95/95/95
f 96/96/96 94/94/94 95/95/95
f 98/98/98 97/97/97 99/99/99
f 100/100/100 98/98/98 99/99/99
f 102/102/102 101/101/101 103/103/103
f 104/104/104 102/102/102 103/103/103
f 106/106/106 105/105/105 107/107/107
f 108/108/108 106/106/106 107/107/107
f 110/110/110 109/109/109 111/111/111
f 112/112/112 110/110/110 111/111/111
f 114/114/114 113/113/113 115/115/115
f 116/116/116 114/114/114 115/115/115
f 118/118/118 117/117/117 119/119/119
f 120/120/120 118/118/118 119/119/119
f 122/122/122 121/121/121 123/123/123
f 124/124/124 122/122/122 123/123/123
f 126/126/126 125/125/125 127/127/127
f 128/128/128 126/126/126 127/127/127
f 130/130/130 129/129/129 131/131/131
f 132/132/132 130/130/130 131/131/131
f 134/134/134 133/133/133 135/135/135
f 136/136/136 134/134/134 135/135/135
f 138/138/138 137/137/137 139/139/139
f 140/140/140 138/138/138 139/139/139
f 142/142/142 141/141/141 143/143/143
f 144/144/144 142/142/142 143/143/143
f 146/146/146 145/145/145 147/147/147
f 148/148/148 146/146/146 147/147/147
f 150/150/150 149/149/149 151/151/151
f 152/152/152 150/150/150 151/151/151
f 154/154/154 153/153/153 155/155/155
f 156/156/156 154/154/154 155/155/155
f 158/158/158 157/157/157 159/159/159
f 160/160/160 158/158/158 159/159/159
f 162/162/162 161/161/161 163/163/163
f 164/164/164 162/162/162 163/163/163
f 166/166/166 165/165/165 167/167/167
f 168/168/168 166/166/166 167/167/167
f 170/170/170 169/169/169 171/171/171
f 172/172/172 170/170/170 171/171/171
f 174/174/174 173/173/173 175/175/175
f 176/176/176 174/174/174 175/175/175
f 178/178/178 177/177/177 179/179/179
f 180/180/180 178/178/178 179/179/179
f 182/182/182 181/181/181 183/183/183
f 184/184/184 182/182/182 183/183/183
